<svg width="26" height="26" viewBox="0 0 26 26" fill="none" xmlns="http://www.w3.org/2000/svg">
<mask id="path-1-inside-1_610_6783" fill="white">
<path d="M12.7878 2.13135L16.0807 8.80229L23.4443 9.8786L18.116 15.0683L19.3735 22.3999L12.7878 18.9366L6.20212 22.3999L7.45958 15.0683L2.13135 9.8786L9.49497 8.80229L12.7878 2.13135Z"/>
</mask>
<path d="M12.7878 2.13135L25.688 -4.23634C23.2644 -9.14641 18.2635 -12.2549 12.7878 -12.2549C7.31214 -12.2549 2.31124 -9.14641 -0.112422 -4.23634L12.7878 2.13135ZM16.0807 8.80229L3.18043 15.17C5.27419 19.4117 9.31939 22.3531 14 23.0373L16.0807 8.80229ZM23.4443 9.8786L33.482 20.1843C37.404 16.3643 38.8177 10.6493 37.1291 5.44141C35.4405 0.23349 30.9422 -3.56456 25.5249 -4.35637L23.4443 9.8786ZM18.116 15.0683L8.0783 4.7626C4.68497 8.06771 3.13611 12.8314 3.93686 17.5002L18.116 15.0683ZM19.3735 22.3999L12.6774 35.1328C17.5244 37.6818 23.3981 37.2578 27.8288 34.0392C32.2594 30.8206 34.4784 25.3656 33.5527 19.968L19.3735 22.3999ZM12.7878 18.9366L19.4839 6.20372C15.292 3.99925 10.2836 3.99925 6.09173 6.20372L12.7878 18.9366ZM6.20212 22.3999L-7.97707 19.968C-8.90281 25.3656 -6.6838 30.8206 -2.25316 34.0392C2.17748 37.2578 8.05126 37.6818 12.8982 35.1328L6.20212 22.3999ZM7.45958 15.0683L21.6388 17.5002C22.4395 12.8314 20.8907 8.06771 17.4973 4.7626L7.45958 15.0683ZM2.13135 9.8786L0.0506933 -4.35637C-5.36659 -3.56456 -9.86487 0.23349 -11.5535 5.44141C-13.2421 10.6493 -11.8283 16.3643 -7.90639 20.1843L2.13135 9.8786ZM9.49497 8.80229L11.5756 23.0373C16.2562 22.3531 20.3014 19.4117 22.3952 15.17L9.49497 8.80229ZM12.7878 2.13135L-0.112422 8.49904L3.18043 15.17L16.0807 8.80229L28.9809 2.43461L25.688 -4.23634L12.7878 2.13135ZM16.0807 8.80229L14 23.0373L21.3636 24.1136L23.4443 9.8786L25.5249 -4.35637L18.1613 -5.43268L16.0807 8.80229ZM23.4443 9.8786L13.4065 -0.427093L8.0783 4.7626L18.116 15.0683L28.1538 25.374L33.482 20.1843L23.4443 9.8786ZM18.116 15.0683L3.93686 17.5002L5.19432 24.8318L19.3735 22.3999L33.5527 19.968L32.2952 12.6364L18.116 15.0683ZM19.3735 22.3999L26.0696 9.66707L19.4839 6.20372L12.7878 18.9366L6.09173 31.6695L12.6774 35.1328L19.3735 22.3999ZM12.7878 18.9366L6.09173 6.20372L-0.493969 9.66707L6.20212 22.3999L12.8982 35.1328L19.4839 31.6695L12.7878 18.9366ZM6.20212 22.3999L20.3813 24.8318L21.6388 17.5002L7.45958 15.0683L-6.71961 12.6364L-7.97707 19.968L6.20212 22.3999ZM7.45958 15.0683L17.4973 4.7626L12.1691 -0.427093L2.13135 9.8786L-7.90639 20.1843L-2.57816 25.374L7.45958 15.0683ZM2.13135 9.8786L4.212 24.1136L11.5756 23.0373L9.49497 8.80229L7.41431 -5.43268L0.0506933 -4.35637L2.13135 9.8786ZM9.49497 8.80229L22.3952 15.17L25.688 8.49904L12.7878 2.13135L-0.112422 -4.23634L-3.40527 2.43461L9.49497 8.80229Z" fill="#FB6D3A" mask="url(#path-1-inside-1_610_6783)"/>
</svg>
