<svg width="24" height="24" viewBox="0 0 24 24" fill="none" xmlns="http://www.w3.org/2000/svg">
<path d="M10.6873 11.6496C10.6873 12.1858 11.1223 12.6204 11.6588 12.6204C12.1954 12.6204 12.6304 12.1858 12.6304 11.6496C12.6304 11.1134 12.1954 10.6787 11.6588 10.6787C11.1223 10.6787 10.6873 11.1134 10.6873 11.6496Z" stroke="#32343E" stroke-width="1.94306" stroke-linecap="round" stroke-linejoin="round"/>
<path d="M17.4881 11.6496C17.4881 12.1858 17.9231 12.6204 18.4596 12.6204C18.9962 12.6204 19.4312 12.1858 19.4312 11.6496C19.4312 11.1134 18.9962 10.6787 18.4596 10.6787C17.9231 10.6787 17.4881 11.1134 17.4881 11.6496Z" stroke="#32343E" stroke-width="1.94306" stroke-linecap="round" stroke-linejoin="round"/>
<path d="M3.88653 11.6496C3.88653 12.1858 4.3215 12.6204 4.85806 12.6204C5.39462 12.6204 5.82959 12.1858 5.82959 11.6496C5.82959 11.1134 5.39462 10.6787 4.85806 10.6787C4.3215 10.6787 3.88653 11.1134 3.88653 11.6496Z" stroke="#32343E" stroke-width="1.94306" stroke-linecap="round" stroke-linejoin="round"/>
</svg>
