<svg width="23" height="16" viewBox="0 0 23 16" fill="none" xmlns="http://www.w3.org/2000/svg">
<path d="M3 12H1V2C1 1.45 1.45 1 2 1H15V9" stroke="#FF7622" stroke-width="1.5" stroke-linecap="round" stroke-linejoin="round"/>
<path d="M9 15C10.66 15 12 13.66 12 12C12 10.34 10.66 9 9 9C7.34 9 6 10.34 6 12C6 13.66 7.34 15 9 15Z" stroke="#FF7622" stroke-width="1.5" stroke-linecap="round" stroke-linejoin="round"/>
<path d="M19 15C20.66 15 22 13.66 22 12C22 10.34 20.66 9 19 9C17.34 9 16 10.34 16 12C16 13.66 17.34 15 19 15Z" stroke="#FF7622" stroke-width="1.5" stroke-linecap="round" stroke-linejoin="round"/>
<path d="M12 12H16" stroke="#FF7622" stroke-width="1.5" stroke-linecap="round" stroke-linejoin="round"/>
<path d="M15 3H18.5L22 6V10H15V3Z" stroke="#FF7622" stroke-width="1.5" stroke-linecap="round" stroke-linejoin="round"/>
</svg>
